REM DISCID E4117C11
REM COMMENT "ExactAudioCopy v1.1"
CATALOG 4571374912320
PERFORMER "Various Artists"
TITLE "初音ミク Project mirai こんぷり~と DISC1"
FILE "Various Artists - 初音ミク Project mirai こんぷり~と DISC1.wav" WAVE
  TRACK 01 AUDIO
    TITLE "ゆめゆめ feat. 初音ミク"
    PERFORMER "DECO*27"
    ISRC JPJ931500061
    INDEX 01 00:00:00
  TRACK 02 AUDIO
    TITLE "ドレミファロンド feat. 初音ミク"
    PERFORMER "40mP"
    ISRC JPJ931500062
    INDEX 00 03:34:30
    INDEX 01 03:36:00
  TRACK 03 AUDIO
    TITLE "逆さまレインボー feat. 初音ミク, 鏡音リン"
    PERFORMER "すんｚりヴぇｒ"
    ISRC JPJ931500063
    INDEX 00 06:54:30
    INDEX 01 06:56:00
  TRACK 04 AUDIO
    TITLE "子猫のパヤパヤ feat. 初音ミク, MEIKO"
    PERFORMER "ワンカップP"
    ISRC JPJ931500064
    INDEX 00 11:59:30
    INDEX 01 12:01:00
  TRACK 05 AUDIO
    TITLE "ハロ／ハワユ feat. 初音ミク"
    PERFORMER "ナノウ"
    ISRC JPJ931500065
    INDEX 00 15:28:30
    INDEX 01 15:30:00
  TRACK 06 AUDIO
    TITLE "ココロfeat. 鏡音リン"
    PERFORMER "トラボルタ"
    ISRC JPJ931500066
    INDEX 00 20:14:30
    INDEX 01 20:16:00
  TRACK 07 AUDIO
    TITLE "PIANO*GIRL feat. 初音ミク"
    PERFORMER "OSTER project"
    ISRC JPJ931500067
    INDEX 00 24:57:30
    INDEX 01 24:59:00
  TRACK 08 AUDIO
    TITLE "ハッピーシンセサイザ feat. 巡音ルカ, GUMI"
    PERFORMER "EasyPop"
    ISRC JPJ931500068
    INDEX 00 29:16:30
    INDEX 01 29:18:00
  TRACK 09 AUDIO
    TITLE "ロミオとシンデレラ feat. 初音ミク"
    PERFORMER "doriko"
    ISRC JPJ931500069
    INDEX 00 33:11:30
    INDEX 01 33:13:00
  TRACK 10 AUDIO
    TITLE "LOL -lots of laugh- feat. 初音ミク"
    PERFORMER "mikumix"
    ISRC JPJ931500070
    INDEX 00 37:51:30
    INDEX 01 37:53:00
  TRACK 11 AUDIO
    TITLE "千本桜 feat. 初音ミク"
    PERFORMER "黒うさ (WhiteFlame)"
    ISRC JPJ931500071
    INDEX 00 41:27:30
    INDEX 01 41:29:00
  TRACK 12 AUDIO
    TITLE "悪ノ娘 feat. 鏡音リン"
    PERFORMER "mothy_悪ノP"
    ISRC JPJ931500072
    INDEX 00 45:31:30
    INDEX 01 45:33:00
  TRACK 13 AUDIO
    TITLE "悪ノ召使 feat. 鏡音レン"
    PERFORMER "mothy_悪ノP"
    ISRC JPJ931500073
    INDEX 00 50:10:30
    INDEX 01 50:12:00
  TRACK 14 AUDIO
    TITLE "逆さまレインボー　(鏡音レンボーカル Ver.)"
    PERFORMER "すんｚりヴぇｒ"
    ISRC JPJ931500074
    INDEX 00 55:02:30
    INDEX 01 55:04:00
  TRACK 15 AUDIO
    TITLE "逆さまレインボー　(巡音ルカボーカル Ver.)"
    PERFORMER "すんｚりヴぇｒ"
    ISRC JPJ931500075
    INDEX 00 60:07:30
    INDEX 01 60:09:00
  TRACK 16 AUDIO
    TITLE "ロミオとシンデレラ　(鏡音リンボーカル Ver.)"
    PERFORMER "doriko"
    ISRC JPJ931500076
    INDEX 00 65:12:30
    INDEX 01 65:14:00
  TRACK 17 AUDIO
    TITLE "ロミオとシンデレラ　(巡音ルカボーカル Ver.)"
    PERFORMER "doriko"
    ISRC JPJ931500077
    INDEX 00 69:52:30
    INDEX 01 69:54:00
